<svg class="svg-icon" style="width: 1em; height: 1em;vertical-align: middle;fill: currentColor;overflow: hidden;" viewBox="0 0 1024 1024" version="1.1" xmlns="http://www.w3.org/2000/svg"><path d="M887.064 658.604c6.094-27.395 9.188-55.486 9.188-83.799 0-44.239-7.462-87.621-22.178-128.942-14.221-39.934-34.882-77.060-61.408-110.348-45.33-56.89-106.355-99.94-174.493-123.711-11.156-58.453-62.644-102.775-124.298-102.775-61.158 0-112.32 43.61-124.029 101.367-37.354 12.515-72.477 30.68-104.404 54.021-31.91 23.327-59.951 51.311-83.347 83.17-48.639 66.237-74.348 144.807-74.348 227.218 0 29.154 3.283 58.139 9.751 86.323-28.318 23.226-46.418 58.475-46.418 97.872 0 69.778 56.77 126.548 126.548 126.548 18.954 0 36.943-4.197 53.1-11.696 68.156 55.024 153.327 85.207 241.271 85.207 88.942 0 174.227-30.511 242.66-86.331 16.758 8.207 35.581 12.821 55.463 12.821 69.778 0 126.548-56.77 126.548-126.548 0-40.857-19.467-77.245-49.607-100.398zM513.875 170.428c35.923 0 65.15 29.227 65.15 65.15s-29.227 65.15-65.15 65.15-65.15-29.227-65.15-65.15 29.226-65.15 65.15-65.15zM152.478 759c0-35.923 29.227-65.15 65.15-65.15s65.15 29.227 65.15 65.15-29.227 65.15-65.15 65.15-65.15-29.226-65.15-65.15zM319.496 833.991c15.502-21.001 24.68-46.943 24.68-74.991 0-69.778-56.77-126.548-126.548-126.548-7.84 0-15.512 0.722-22.961 2.094-3.663-19.612-5.523-39.622-5.523-59.741 0-133.48 81.37-251.989 204.286-300.395 16.43 50.839 64.208 87.716 120.445 87.716 55.77 0 103.225-36.265 120.034-86.451 120.352 48.734 200.945 165.763 200.945 299.13 0 19.926-1.823 39.709-5.41 59.119-6.3-0.969-12.753-1.473-19.321-1.473-69.778 0-126.548 56.77-126.548 126.548 0 27.247 8.656 52.51 23.362 73.185-55.897 42.411-124.036 65.475-194.937 65.475-69.565 0-137.062-22.471-192.503-63.669zM810.122 824.15c-35.923 0-65.15-29.227-65.15-65.15s29.227-65.15 65.15-65.15 65.15 29.227 65.15 65.15-29.227 65.15-65.15 65.15z"  /></svg>