<svg version="1.1" id="Layer_1" xmlns="http://www.w3.org/2000/svg" xmlns:xlink="http://www.w3.org/1999/xlink" x="0px" y="0px"
	 width="100%" viewBox="0 0 873 645" enable-background="new 0 0 873 645" xml:space="preserve">
<path fill="#50AF5A" opacity="1.000000" stroke="none" 
	d="
M340.000000,0.999996 
	C493.357422,1.000000 646.714844,1.000000 800.533569,1.381762 
	C799.034302,5.856192 797.073669,9.948860 794.787476,14.167622 
	C790.502686,16.447647 790.149658,20.224634 790.010010,24.464348 
	C788.356201,27.558132 786.735107,30.299973 784.805908,33.195679 
	C783.012817,36.603851 781.527832,39.858154 780.010132,43.464405 
	C778.356262,46.558178 776.735168,49.300007 774.805908,52.195702 
	C773.012817,55.603867 771.527832,58.858170 770.010132,62.464417 
	C768.356323,65.558189 766.735229,68.300011 764.805969,71.195686 
	C763.012817,74.603844 761.527832,77.858154 760.010071,81.464409 
	C758.356201,84.558174 756.735046,87.299988 754.784302,90.172684 
	C753.317444,92.906677 752.180237,95.509804 750.893311,98.427956 
	C748.773010,102.500473 746.802490,106.257957 744.690796,110.192947 
	C744.365479,110.611374 744.190308,110.858673 744.027222,111.078262 
	C744.030334,111.044189 744.097900,111.055199 743.772583,111.198219 
	C742.645813,113.265121 741.844421,115.189003 740.893311,117.427933 
	C738.773010,121.500450 736.802490,125.257935 734.690796,129.192932 
	C734.365479,129.611389 734.190308,129.858688 734.027222,130.078308 
	C734.030334,130.044235 734.097839,130.055237 733.772522,130.198242 
	C732.645752,132.265121 731.844360,134.188995 730.893311,136.427917 
	C728.773071,140.500473 726.802490,144.257950 724.690796,148.192932 
	C724.365479,148.611389 724.190308,148.858688 724.027222,149.078308 
	C724.030334,149.044235 724.097839,149.055237 723.772522,149.198257 
	C722.645813,151.265137 721.844421,153.189011 720.893311,155.427948 
	C718.773071,159.500488 716.802551,163.257965 714.690796,167.192947 
	C714.365479,167.611389 714.190308,167.858688 714.027222,168.078308 
	C714.030334,168.044235 714.097839,168.055237 713.772522,168.198242 
	C712.645813,170.265137 711.844360,172.188995 710.893311,174.427933 
	C708.773071,178.500473 706.802551,182.257950 704.690796,186.192947 
	C704.365479,186.611389 704.190308,186.858688 704.027222,187.078308 
	C704.030334,187.044235 704.097839,187.055237 703.772522,187.198242 
	C702.645813,189.265121 701.844360,191.188995 700.893311,193.427948 
	C698.773071,197.500488 696.802551,201.257965 694.690796,205.192963 
	C694.365479,205.611389 694.190308,205.858688 694.027222,206.078308 
	C694.030334,206.044235 694.097839,206.055237 693.772583,206.198242 
	C692.645874,208.265015 691.844421,210.188782 691.010071,212.464478 
	C689.356140,215.558212 687.735046,218.300034 685.788330,221.167877 
	C681.502136,223.447250 681.149902,227.224823 681.010071,231.464691 
	C679.356140,234.558350 677.735107,237.300079 675.805908,240.195709 
	C674.012817,243.603882 672.527832,246.858170 671.010132,250.464386 
	C669.356262,253.558136 667.735168,256.299927 665.805969,259.195618 
	C664.012817,262.603790 662.527832,265.858093 661.010010,269.464355 
	C659.356262,272.558136 657.735168,275.299957 655.806030,278.195618 
	C654.012878,281.603821 652.527893,284.858124 651.010132,288.464386 
	C649.356201,291.558136 647.735168,294.299927 645.806030,297.195618 
	C644.012878,300.603790 642.527832,303.858124 641.010010,307.464355 
	C639.356201,310.558105 637.735107,313.299927 635.805908,316.195587 
	C634.012817,319.603790 632.527832,322.858093 631.009583,326.466187 
	C629.261658,329.885040 627.546875,332.950165 625.690857,336.192810 
	C625.365417,336.611298 625.190308,336.858704 625.027649,337.078094 
	C625.031006,337.043701 625.099365,337.053894 624.793823,337.222107 
	C623.673218,339.297913 622.858154,341.205475 621.893311,343.428040 
	C619.773010,347.500610 617.802490,351.258148 615.690796,355.193115 
	C615.365417,355.611450 615.190247,355.858734 615.027222,356.078308 
	C615.030334,356.044250 615.097839,356.055298 614.772583,356.198303 
	C613.645813,358.265137 612.844421,360.188995 611.893311,362.427917 
	C609.773071,366.500549 607.802551,370.258118 605.690796,374.193115 
	C605.365417,374.611450 605.190247,374.858734 605.027222,375.078308 
	C605.030334,375.044250 605.097839,375.055298 604.772583,375.198303 
	C603.645874,377.265167 602.844421,379.189026 601.893311,381.427917 
	C599.773010,385.500519 597.802490,389.258087 595.690735,393.193115 
	C595.365417,393.611450 595.190247,393.858734 595.027222,394.078308 
	C595.030334,394.044250 595.097839,394.055298 594.772583,394.198303 
	C593.645813,396.265137 592.844360,398.188995 591.893311,400.427917 
	C589.773071,404.500549 587.802551,408.258118 585.690796,412.193115 
	C585.365417,412.611450 585.190247,412.858734 585.027222,413.078308 
	C585.030334,413.044250 585.097839,413.055298 584.772583,413.198303 
	C583.645813,415.265137 582.844360,417.188995 581.893311,419.427917 
	C579.773071,423.500549 577.802490,427.258118 575.690796,431.193115 
	C575.365417,431.611450 575.190247,431.858734 575.027222,432.078308 
	C575.030334,432.044250 575.097839,432.055298 574.772583,432.198303 
	C573.645813,434.265137 572.844360,436.188995 571.893311,438.427917 
	C569.773071,442.500549 567.802490,446.258118 565.690796,450.193115 
	C565.365417,450.611450 565.190247,450.858734 565.027222,451.078308 
	C565.030334,451.044250 565.097839,451.055298 564.772583,451.198273 
	C563.645813,453.265015 562.844360,455.188782 562.010071,457.464478 
	C560.356201,460.558197 558.735107,463.300018 556.788452,466.167847 
	C552.502502,468.447327 552.149658,472.224670 552.010071,476.464661 
	C550.356201,479.558289 548.735168,482.300018 546.806030,485.195618 
	C545.012817,488.603790 543.527832,491.858093 542.010071,495.464386 
	C540.356201,498.558136 538.735168,501.299927 536.806030,504.195618 
	C535.012878,507.603790 533.527893,510.858093 532.010132,514.464355 
	C530.356262,517.558167 528.735168,520.299988 526.805969,523.195618 
	C525.012817,526.603760 523.527832,529.858093 522.010132,533.464355 
	C520.356262,536.558167 518.735168,539.299988 516.805969,542.195618 
	C515.012817,545.603760 513.527832,548.858093 512.010071,552.464355 
	C510.356201,555.558105 508.735077,558.299988 506.784332,561.172668 
	C505.317505,563.906616 504.180298,566.509705 502.923706,569.391968 
	C502.241180,570.461426 501.678070,571.251770 500.754272,572.097778 
	C492.685608,575.485657 489.260834,582.850647 491.966492,590.333923 
	C491.706451,590.837036 491.448029,590.999084 490.754272,591.097778 
	C482.685608,594.485657 479.260834,601.850647 481.966492,609.333923 
	C481.706451,609.837036 481.448029,609.999084 480.754272,610.097778 
	C472.685608,613.485657 469.260834,620.850647 471.966492,628.333923 
	C471.706451,628.837097 471.448090,628.999084 470.754272,629.097656 
	C466.595703,633.435547 462.797852,637.717773 458.534973,642.000000 
	C308.379974,642.000000 158.689987,642.000000 8.958214,641.653320 
	C7.944305,640.204346 6.972182,639.102173 5.989235,637.721863 
	C5.971150,637.258362 5.963889,637.072937 5.991778,636.657471 
	C6.026930,636.427490 6.168806,635.984253 6.307940,635.805786 
	C6.628052,635.385803 6.799524,635.137695 7.037003,634.661865 
	C7.295849,634.160950 7.553381,634.000000 8.243593,633.902954 
	C16.445940,630.486633 19.793924,623.289734 17.033482,615.666016 
	C17.293573,615.162781 17.551983,615.000732 18.243580,614.902954 
	C22.196518,610.736023 26.164656,606.882568 29.253540,602.420471 
	C31.298796,599.465942 31.561954,595.292664 33.557701,592.285400 
	C36.372295,588.044189 40.447830,584.618591 39.872055,578.759277 
	C39.785679,577.880310 41.099854,576.873840 41.743481,575.911255 
	C44.302670,572.083679 47.105919,568.389771 49.324055,564.373169 
	C51.013855,561.313416 51.499077,557.554077 53.339283,554.619690 
	C56.107063,550.206116 60.495518,546.723633 59.907925,540.670715 
	C59.822945,539.795349 61.156811,538.797913 61.798843,537.833557 
	C64.349251,534.002625 68.387939,530.402344 69.048920,526.265076 
	C69.884171,521.036987 72.330544,517.148926 75.455307,513.775940 
	C79.516289,509.392334 80.844673,505.197235 78.033524,499.666016 
	C78.293625,499.162872 78.552025,499.000824 79.243774,498.903137 
	C88.097275,495.245697 91.036598,488.926941 88.033524,480.666016 
	C88.293625,480.162872 88.552025,480.000824 89.245766,479.902161 
	C97.314423,476.514404 100.739212,469.149323 98.033524,461.666016 
	C98.293625,461.162872 98.552025,461.000824 99.245766,460.902161 
	C107.314423,457.514404 110.739212,450.149323 108.033524,442.666016 
	C108.293625,442.162872 108.552025,442.000824 109.245766,441.902161 
	C117.314423,438.514404 120.739212,431.149323 118.033524,423.666016 
	C118.293625,423.162872 118.552025,423.000824 119.245766,422.902161 
	C127.314468,419.514374 130.739258,412.149292 128.033524,404.666016 
	C128.293625,404.162872 128.552032,404.000824 129.245758,403.902130 
	C137.314438,400.514496 140.739273,393.149323 138.033524,385.666016 
	C138.293625,385.162872 138.552032,385.000824 139.243591,384.902954 
	C147.445847,381.486786 150.793823,374.289978 148.033524,366.666016 
	C148.293625,366.162872 148.552032,366.000824 149.243591,365.902954 
	C155.126709,362.293945 159.713684,358.094696 160.574341,351.027069 
	C160.762482,349.481903 161.453369,347.880524 162.303009,346.555298 
	C164.881149,342.534180 167.936676,338.795319 170.255157,334.639099 
	C172.118118,331.299438 172.635590,327.149506 174.729965,324.013489 
	C177.473923,319.904846 181.395584,316.569519 180.774445,310.918396 
	C180.703552,310.273346 181.620636,309.545410 182.012497,308.819672 
	C185.070740,303.155914 191.608017,299.306549 190.905762,291.631836 
	C190.836594,290.876038 191.959625,290.011353 192.528854,289.196899 
	C195.081665,285.544189 199.168427,282.151184 199.840912,278.179962 
	C200.953537,271.609772 204.538300,267.161835 208.397156,262.422821 
	C210.564407,259.761200 212.226440,256.604126 207.989243,253.721939 
	C207.971222,253.258514 207.963943,253.073135 207.988739,252.535614 
	C209.642563,249.441711 211.264313,246.699936 213.211716,243.832138 
	C217.497635,241.552582 217.850525,237.775345 217.988983,233.535065 
	C219.642731,230.441360 221.264389,227.699753 223.211700,224.832138 
	C227.497635,222.552582 227.850525,218.775345 227.989716,214.532394 
	C230.071030,210.446732 232.119537,206.715820 234.309235,202.807327 
	C234.634521,202.388748 234.809647,202.141373 234.972656,201.921722 
	C234.969528,201.955795 234.902008,201.944733 235.227325,201.801727 
	C236.354095,199.734894 237.155533,197.811050 237.989746,195.532440 
	C240.071030,191.446762 242.119553,187.715836 244.309235,183.807343 
	C244.634521,183.388748 244.809647,183.141373 244.972656,182.921722 
	C244.969528,182.955795 244.902008,182.944733 245.227325,182.801727 
	C246.354080,180.734894 247.155518,178.811050 247.989746,176.532440 
	C250.071045,172.446762 252.119568,168.715836 254.309250,164.807343 
	C254.634521,164.388748 254.809647,164.141373 254.972656,163.921722 
	C254.969528,163.955795 254.902008,163.944733 255.227325,163.801743 
	C256.354065,161.734909 257.155487,159.811066 257.989746,157.532471 
	C260.071045,153.446777 262.119537,149.715836 264.309235,145.807343 
	C264.634491,145.388763 264.809631,145.141403 264.972656,144.921738 
	C264.969543,144.955795 264.902039,144.944733 265.227356,144.801743 
	C266.354065,142.734909 267.155518,140.811066 267.989746,138.532471 
	C270.071045,134.446732 272.119568,130.715744 274.309265,126.807220 
	C274.634552,126.388733 274.809662,126.141403 274.972626,125.921768 
	C274.969482,125.955841 274.901947,125.944824 275.227295,125.801804 
	C276.354095,123.734917 277.155548,121.811058 277.986328,119.553146 
	C278.972290,117.798752 279.928894,116.378403 281.185913,114.802742 
	C284.762360,110.589233 288.787018,106.882957 287.986542,100.537796 
	C289.975891,96.774872 291.930969,93.366524 294.211670,89.832153 
	C298.497467,87.552811 298.850342,83.775642 298.989899,79.535751 
	C300.643738,76.441925 302.264801,73.700058 304.194031,70.804337 
	C305.987152,67.396187 307.472137,64.141899 308.989899,60.535660 
	C310.643768,57.441875 312.264862,54.700031 314.194092,51.804321 
	C315.987152,48.396172 317.472107,45.141888 318.989868,41.535652 
	C320.643738,38.441856 322.264832,35.700012 324.194092,32.804314 
	C325.987183,29.396177 327.472137,26.141897 328.989899,22.535664 
	C330.643738,19.441870 332.264832,16.700027 334.194031,13.804331 
	C335.987183,10.396190 337.472137,7.141905 339.131378,3.554493 
	C339.537109,2.480907 339.768524,1.740449 340.000000,0.999996 
z"/>
<path fill="#000000" opacity="1.000000" stroke="none" 
	d="
M704.831909,186.015427 
	C706.802551,182.257950 708.773071,178.500473 711.192017,174.247559 
	C712.459534,171.853149 713.278687,169.954193 714.097839,168.055237 
	C714.097839,168.055237 714.030334,168.044235 714.265869,167.979248 
	C714.611633,167.614655 714.721802,167.315033 714.832031,167.015442 
	C716.802551,163.257965 718.773071,159.500488 721.192017,155.247559 
	C722.459534,152.853165 723.278687,150.954208 724.097839,149.055237 
	C724.097839,149.055237 724.030334,149.044235 724.265869,148.979248 
	C724.611572,148.614639 724.721741,148.315018 724.831909,148.015411 
	C726.802490,144.257950 728.773071,140.500473 731.192017,136.247559 
	C732.459534,133.853165 733.278687,131.954193 734.097839,130.055237 
	C734.097839,130.055237 734.030334,130.044235 734.265869,129.979248 
	C734.611633,129.614639 734.721802,129.315033 734.831970,129.015411 
	C736.802490,125.257935 738.773010,121.500450 741.192017,117.247551 
	C742.459595,114.853157 743.278748,112.954185 744.097900,111.055206 
	C744.097900,111.055199 744.030334,111.044189 744.265869,110.979233 
	C744.611633,110.614662 744.721802,110.315063 744.831970,110.015450 
	C746.802490,106.257957 748.773010,102.500473 751.194641,98.243958 
	C752.801758,95.177216 753.957825,92.609505 755.113953,90.041794 
	C756.735046,87.299988 758.356201,84.558174 760.312439,81.278702 
	C762.136414,77.507980 763.625244,74.274902 765.114136,71.041832 
	C766.735229,68.300011 768.356323,65.558189 770.312500,62.278702 
	C772.136353,58.507969 773.625183,55.274895 775.114075,52.041828 
	C776.735168,49.300007 778.356262,46.558178 780.312500,43.278709 
	C782.136414,39.507996 783.625244,36.274921 785.114136,33.041832 
	C786.735107,30.299973 788.356201,27.558132 790.312378,24.278641 
	C792.135986,20.507839 793.624512,17.274687 795.113037,14.041532 
	C797.073669,9.948860 799.034302,5.856192 800.997437,1.381762 
	C825.323914,1.000000 849.647827,1.000000 873.978760,0.999999 
	C873.985840,215.907303 873.985840,430.814606 873.985840,646.000000 
	C737.312561,646.000000 600.624939,646.000000 463.481537,645.755371 
	C463.025757,645.510681 463.122375,645.030334 463.411194,644.853638 
	C464.494812,642.807068 465.289642,640.937195 466.053894,639.058411 
	C466.023315,639.049561 466.021912,639.113098 466.258240,639.015991 
	C466.606812,638.622864 466.719086,638.326843 466.987976,637.707764 
	C468.468079,634.603882 469.791565,631.822937 471.115021,629.041992 
	C471.448090,628.999084 471.706451,628.837097 472.269348,628.147522 
	C475.470673,621.840088 478.292816,615.941101 481.114929,610.042053 
	C481.448029,609.999084 481.706451,609.837036 482.269348,609.147522 
	C485.470673,602.840088 488.292786,596.941101 491.114929,591.042053 
	C491.448029,590.999084 491.706451,590.837036 492.269348,590.147522 
	C495.470673,583.840088 498.292786,577.941101 501.114929,572.042053 
	C501.678070,571.251770 502.241180,570.461426 503.225037,569.208008 
	C504.801849,566.177185 505.957916,563.609497 507.113953,561.041809 
	C508.735077,558.299988 510.356201,555.558105 512.312439,552.278687 
	C514.136353,548.507935 515.625183,545.274841 517.114075,542.041809 
	C518.735168,539.299988 520.356262,536.558167 522.312500,533.278687 
	C524.136414,529.507935 525.625244,526.274902 527.114136,523.041809 
	C528.735168,520.299988 530.356262,517.558167 532.312439,514.278687 
	C534.136414,510.507935 535.625244,507.274841 537.114136,504.041748 
	C538.735168,501.299927 540.356201,498.558136 542.312378,495.278687 
	C544.136414,491.507935 545.625244,488.274841 547.114136,485.041748 
	C548.735168,482.300018 550.356201,479.558289 552.312622,476.279205 
	C554.136658,472.508484 555.625366,469.275146 557.114075,466.041809 
	C558.735107,463.300018 560.356201,460.558197 562.308838,457.284210 
	C563.459534,454.853119 564.278687,452.954193 565.097839,451.055298 
	C565.097839,451.055298 565.030334,451.044250 565.265869,450.979309 
	C565.611511,450.614807 565.721741,450.315247 565.831970,450.015686 
	C567.802490,446.258118 569.773071,442.500549 572.192017,438.247559 
	C573.459534,435.853180 574.278687,433.954254 575.097839,432.055298 
	C575.097839,432.055298 575.030334,432.044250 575.265869,431.979309 
	C575.611572,431.614807 575.721741,431.315247 575.831970,431.015686 
	C577.802490,427.258118 579.773071,423.500549 582.192017,419.247559 
	C583.459534,416.853180 584.278687,414.954224 585.097839,413.055298 
	C585.097839,413.055298 585.030334,413.044250 585.265869,412.979309 
	C585.611572,412.614807 585.721802,412.315247 585.831970,412.015686 
	C587.802551,408.258118 589.773071,404.500549 592.192017,400.247559 
	C593.459534,397.853180 594.278687,395.954224 595.097839,394.055298 
	C595.097839,394.055298 595.030334,394.044250 595.265869,393.979309 
	C595.611511,393.614807 595.721741,393.315247 595.831909,393.015686 
	C597.802490,389.258087 599.773010,385.500519 602.191956,381.247559 
	C603.459534,378.853210 604.278687,376.954254 605.097839,375.055298 
	C605.097839,375.055298 605.030334,375.044250 605.265869,374.979309 
	C605.611572,374.614807 605.721741,374.315247 605.831970,374.015686 
	C607.802551,370.258118 609.773071,366.500549 612.192017,362.247559 
	C613.459534,359.853180 614.278687,357.954254 615.097839,356.055298 
	C615.097839,356.055298 615.030334,356.044250 615.265869,355.979309 
	C615.611511,355.614807 615.721741,355.315247 615.831970,355.015686 
	C617.802490,351.258148 619.773010,347.500610 622.191956,343.247620 
	C623.460022,340.852753 624.279663,338.953308 625.099365,337.053894 
	C625.099365,337.053894 625.031006,337.043701 625.266357,336.979004 
	C625.611816,336.614655 625.721985,336.314972 625.832153,336.015259 
	C627.546875,332.950165 629.261658,329.885040 631.311951,326.280487 
	C633.136414,322.507935 634.625244,319.274841 636.114136,316.041748 
	C637.735107,313.299927 639.356201,310.558105 641.312378,307.278687 
	C643.136414,303.507935 644.625244,300.274841 646.114136,297.041748 
	C647.735168,294.299927 649.356201,291.558136 651.312378,288.278687 
	C653.136414,284.507935 654.625244,281.274841 656.114136,278.041748 
	C657.735168,275.299957 659.356262,272.558136 661.312378,269.278687 
	C663.136414,265.507935 664.625244,262.274841 666.114136,259.041748 
	C667.735168,256.299927 669.356262,253.558136 671.312439,250.278671 
	C673.136353,246.507950 674.625183,243.274887 676.114075,240.041809 
	C677.735107,237.300079 679.356140,234.558350 681.312622,231.279236 
	C683.136658,227.508545 684.625366,224.275208 686.114014,221.041870 
	C687.735046,218.300034 689.356140,215.558212 691.308838,212.284210 
	C692.459534,209.853104 693.278687,207.954178 694.097839,206.055237 
	C694.097839,206.055237 694.030334,206.044235 694.265869,205.979248 
	C694.611633,205.614655 694.721802,205.315033 694.832031,205.015442 
	C696.802551,201.257965 698.773071,197.500488 701.192017,193.247559 
	C702.459534,190.853149 703.278687,188.954193 704.097839,187.055237 
	C704.097839,187.055237 704.030334,187.044235 704.265869,186.979248 
	C704.611572,186.614639 704.721741,186.315033 704.831909,186.015427 
z"/>
<path fill="#000000" opacity="1.000000" stroke="none" 
	d="
M118.885101,422.957886 
	C118.552025,423.000824 118.293625,423.162872 117.730675,423.852417 
	C114.529327,430.159821 111.707222,436.058868 108.885117,441.957886 
	C108.552025,442.000824 108.293625,442.162872 107.730682,442.852417 
	C104.529343,449.159821 101.707230,455.058868 98.885117,460.957886 
	C98.552025,461.000824 98.293625,461.162872 97.730675,461.852417 
	C94.529327,468.159821 91.707214,474.058868 88.885117,479.957886 
	C88.552025,480.000824 88.293625,480.162872 87.730659,480.852417 
	C84.529305,487.159821 81.707199,493.058838 78.885101,498.957886 
	C78.552025,499.000824 78.293625,499.162872 77.730667,499.852417 
	C67.916603,518.438538 58.505047,536.628479 49.035110,554.787903 
	C45.402554,561.753601 41.549358,568.604797 37.950691,575.587524 
	C31.202927,588.680481 24.567354,601.831177 17.885118,614.957886 
	C17.551983,615.000732 17.293573,615.162781 16.730625,615.852417 
	C13.529283,622.159851 10.707197,628.058899 7.885111,633.957886 
	C7.553381,634.000000 7.295849,634.160950 6.802611,634.764282 
	C6.384740,635.386780 6.276773,635.685486 6.168806,635.984253 
	C6.168806,635.984253 6.026930,636.427490 5.682114,636.852478 
	C4.522011,639.837280 3.706724,642.397095 2.658710,645.046509 
	C2.129082,645.347717 1.987087,645.635681 2.000001,646.000000 
	C1.666669,645.833557 1.056184,645.684509 1.044455,645.497864 
	C0.961030,644.170349 1.000000,642.835205 1.000000,641.502441 
	C1.000000,428.097260 1.000000,214.692078 1.000000,1.000000 
	C113.687401,1.000000 226.375046,1.000000 339.531311,0.999996 
	C339.768524,1.740449 339.537109,2.480907 338.829041,3.740193 
	C336.863556,7.492074 335.374725,10.725127 333.885895,13.958183 
	C332.264832,16.700027 330.643738,19.441870 328.687561,22.721367 
	C326.863617,26.492077 325.374786,29.725132 323.885925,32.958176 
	C322.264832,35.700012 320.643738,38.441856 318.687561,41.721359 
	C316.863586,45.492073 315.374756,48.725128 313.885925,51.958183 
	C312.264862,54.700031 310.643768,57.441875 308.687561,60.721375 
	C306.863586,64.492081 305.374725,67.725136 303.885895,70.958191 
	C302.264801,73.700058 300.643738,76.441925 298.687561,79.721451 
	C296.863647,83.492134 295.374847,86.725159 293.886047,89.958176 
	C291.930969,93.366524 289.975891,96.774872 287.683868,100.723663 
	C285.193115,105.828758 283.039307,110.393410 280.885498,114.958054 
	C279.928894,116.378403 278.972290,117.798752 277.687622,119.733513 
	C276.540375,122.146889 275.721161,124.045860 274.901947,125.944824 
	C274.901947,125.944824 274.969482,125.955841 274.734009,126.020813 
	C274.388367,126.385437 274.278198,126.685089 274.168091,126.984741 
	C272.119568,130.715744 270.071045,134.446732 267.691040,138.712830 
	C266.540375,141.146866 265.721222,143.045807 264.902039,144.944733 
	C264.902039,144.944733 264.969543,144.955795 264.734009,145.020813 
	C264.388306,145.385513 264.278168,145.685211 264.168060,145.984909 
	C262.119537,149.715836 260.071045,153.446777 257.691040,157.712830 
	C256.540375,160.146896 255.721191,162.045807 254.902008,163.944733 
	C254.902008,163.944733 254.969528,163.955795 254.734009,164.020798 
	C254.388351,164.385513 254.278229,164.685211 254.168091,164.984909 
	C252.119568,168.715836 250.071045,172.446762 247.691055,176.712814 
	C246.540390,179.146866 245.721191,181.045807 244.902008,182.944733 
	C244.902008,182.944733 244.969528,182.955795 244.733994,183.020798 
	C244.388321,183.385498 244.278198,183.685196 244.168060,183.984909 
	C242.119553,187.715836 240.071030,191.446762 237.691055,195.712814 
	C236.540390,198.146881 235.721207,200.045807 234.902008,201.944733 
	C234.902008,201.944733 234.969528,201.955795 234.734009,202.020798 
	C234.388351,202.385513 234.278229,202.685211 234.168076,202.984894 
	C232.119537,206.715820 230.071030,210.446732 227.687225,214.717941 
	C225.863312,218.491547 224.374680,221.724854 222.886063,224.958160 
	C221.264389,227.699753 219.642731,230.441360 217.686508,233.720612 
	C215.863327,237.491547 214.374695,240.724854 212.886078,243.958160 
	C211.264313,246.699936 209.642563,249.441711 207.686462,252.721375 
	C205.863266,256.492340 204.374405,259.725433 202.589081,263.142090 
	C194.850525,277.588226 187.434860,291.864685 179.954865,306.107330 
	C176.368301,312.936523 172.566559,319.653503 169.026886,326.506317 
	C162.250809,339.624756 155.592377,352.803925 148.885132,365.957886 
	C148.552032,366.000824 148.293625,366.162872 147.730682,366.852417 
	C144.529327,373.159851 141.707214,379.058868 138.885117,384.957886 
	C138.552032,385.000824 138.293625,385.162872 137.730682,385.852417 
	C134.529343,392.159821 131.707230,398.058868 128.885117,403.957886 
	C128.552032,404.000824 128.293625,404.162872 127.730667,404.852417 
	C124.529320,411.159821 121.707207,417.058838 118.885101,422.957886 
z"/>
<path fill="#50AF5A" opacity="1.000000" stroke="none" 
	d="
M2.891438,644.956909 
	C3.706724,642.397095 4.522011,639.837280 5.646962,637.082520 
	C5.963889,637.072937 5.971150,637.258362 6.031009,638.068604 
	C7.055735,639.795593 8.027864,640.897827 8.999996,642.000000 
	C158.689987,642.000000 308.379974,642.000000 458.699280,642.208496 
	C461.580536,641.300476 463.832489,640.183899 466.084442,639.067261 
	C465.289642,640.937195 464.494812,642.807068 463.216919,645.006836 
	C462.481445,645.549255 462.236816,645.770325 462.000000,646.000000 
	C309.643341,646.000000 157.286682,646.000000 4.287735,645.818237 
	C3.394110,645.409973 3.142774,645.183472 2.891438,644.956909 
z"/>
<path fill="#54AB56" opacity="1.000000" stroke="none" 
	d="
M2.658711,645.046509 
	C3.142774,645.183472 3.394110,645.409973 3.822723,645.818237 
	C3.555556,646.000000 3.111111,646.000000 2.333333,646.000000 
	C1.987087,645.635681 2.129082,645.347717 2.658711,645.046509 
z"/>
<path fill="#54AB56" opacity="1.000000" stroke="none" 
	d="
M462.250000,646.000000 
	C462.236816,645.770325 462.481445,645.549255 462.928131,645.183594 
	C463.122375,645.030334 463.025757,645.510681 463.012878,645.755371 
	C463.000000,646.000000 462.500000,646.000000 462.250000,646.000000 
z"/>
<path fill="#50AF5A" opacity="1.000000" stroke="none" 
	d="
M18.243587,614.902954 
	C24.567354,601.831177 31.202927,588.680481 37.950691,575.587524 
	C41.549358,568.604797 45.402554,561.753601 49.035110,554.787903 
	C58.505047,536.628479 67.916603,518.438538 77.654282,500.074402 
	C80.844673,505.197235 79.516289,509.392334 75.455307,513.775940 
	C72.330544,517.148926 69.884171,521.036987 69.048920,526.265076 
	C68.387939,530.402344 64.349251,534.002625 61.798843,537.833557 
	C61.156811,538.797913 59.822945,539.795349 59.907925,540.670715 
	C60.495518,546.723633 56.107063,550.206116 53.339283,554.619690 
	C51.499077,557.554077 51.013855,561.313416 49.324055,564.373169 
	C47.105919,568.389771 44.302670,572.083679 41.743481,575.911255 
	C41.099854,576.873840 39.785679,577.880310 39.872055,578.759277 
	C40.447830,584.618591 36.372295,588.044189 33.557701,592.285400 
	C31.561954,595.292664 31.298796,599.465942 29.253540,602.420471 
	C26.164656,606.882568 22.196518,610.736023 18.243587,614.902954 
z"/>
<path fill="#50AF5A" opacity="1.000000" stroke="none" 
	d="
M149.243591,365.902954 
	C155.592377,352.803925 162.250809,339.624756 169.026886,326.506317 
	C172.566559,319.653503 176.368301,312.936523 179.954865,306.107330 
	C187.434860,291.864685 194.850525,277.588226 202.890945,262.985229 
	C204.992828,259.763184 206.496414,256.881592 208.000000,254.000000 
	C212.226440,256.604126 210.564407,259.761200 208.397156,262.422821 
	C204.538300,267.161835 200.953537,271.609772 199.840912,278.179962 
	C199.168427,282.151184 195.081665,285.544189 192.528854,289.196899 
	C191.959625,290.011353 190.836594,290.876038 190.905762,291.631836 
	C191.608017,299.306549 185.070740,303.155914 182.012497,308.819672 
	C181.620636,309.545410 180.703552,310.273346 180.774445,310.918396 
	C181.395584,316.569519 177.473923,319.904846 174.729965,324.013489 
	C172.635590,327.149506 172.118118,331.299438 170.255157,334.639099 
	C167.936676,338.795319 164.881149,342.534180 162.303009,346.555298 
	C161.453369,347.880524 160.762482,349.481903 160.574341,351.027069 
	C159.713684,358.094696 155.126709,362.293945 149.243591,365.902954 
z"/>
<path fill="#50AF5A" opacity="1.000000" stroke="none" 
	d="
M79.243759,498.903137 
	C81.707199,493.058838 84.529305,487.159821 87.654274,481.074402 
	C91.036598,488.926941 88.097275,495.245697 79.243759,498.903137 
z"/>
<path fill="#50AF5A" opacity="1.000000" stroke="none" 
	d="
M8.243594,633.902954 
	C10.707197,628.058899 13.529283,622.159851 16.654224,616.074463 
	C19.793924,623.289734 16.445940,630.486633 8.243594,633.902954 
z"/>
<path fill="#50AF5A" opacity="1.000000" stroke="none" 
	d="
M139.243591,384.902954 
	C141.707214,379.058868 144.529327,373.159851 147.654297,367.074402 
	C150.793823,374.289978 147.445847,381.486786 139.243591,384.902954 
z"/>
<path fill="#50AF5A" opacity="1.000000" stroke="none" 
	d="
M109.245758,441.902161 
	C111.707222,436.058868 114.529327,430.159821 117.654289,424.074402 
	C120.739212,431.149323 117.314423,438.514404 109.245758,441.902161 
z"/>
<path fill="#50AF5A" opacity="1.000000" stroke="none" 
	d="
M99.245773,460.902161 
	C101.707230,455.058868 104.529343,449.159821 107.654297,443.074402 
	C110.739212,450.149323 107.314423,457.514404 99.245773,460.902161 
z"/>
<path fill="#50AF5A" opacity="1.000000" stroke="none" 
	d="
M89.245758,479.902161 
	C91.707214,474.058868 94.529327,468.159821 97.654289,462.074402 
	C100.739212,469.149323 97.314423,476.514404 89.245758,479.902161 
z"/>
<path fill="#50AF5A" opacity="1.000000" stroke="none" 
	d="
M119.245758,422.902161 
	C121.707207,417.058838 124.529320,411.159821 127.654282,405.074402 
	C130.739258,412.149292 127.314468,419.514374 119.245758,422.902161 
z"/>
<path fill="#50AF5A" opacity="1.000000" stroke="none" 
	d="
M129.245758,403.902130 
	C131.707230,398.058868 134.529343,392.159821 137.654297,386.074402 
	C140.739273,393.149323 137.314438,400.514496 129.245758,403.902130 
z"/>
<path fill="#50AF5A" opacity="1.000000" stroke="none" 
	d="
M500.754272,572.097778 
	C498.292786,577.941101 495.470673,583.840088 492.345703,589.925537 
	C489.260834,582.850647 492.685608,575.485657 500.754272,572.097778 
z"/>
<path fill="#50AF5A" opacity="1.000000" stroke="none" 
	d="
M490.754272,591.097778 
	C488.292786,596.941101 485.470673,602.840088 482.345703,608.925537 
	C479.260834,601.850647 482.685608,594.485657 490.754272,591.097778 
z"/>
<path fill="#50AF5A" opacity="1.000000" stroke="none" 
	d="
M480.754272,610.097778 
	C478.292816,615.941101 475.470673,621.840088 472.345703,627.925537 
	C469.260834,620.850647 472.685608,613.485657 480.754272,610.097778 
z"/>
<path fill="#50AF5A" opacity="1.000000" stroke="none" 
	d="
M466.053894,639.058472 
	C463.832489,640.183899 461.580536,641.300476 459.164307,642.208496 
	C462.797852,637.717773 466.595703,633.435547 470.754333,629.097656 
	C469.791565,631.822937 468.468079,634.603882 466.847351,637.883423 
	C466.366425,638.620239 466.190369,638.863953 466.021912,639.113098 
	C466.021912,639.113098 466.023315,639.049561 466.053894,639.058472 
z"/>
<path fill="#50AF5A" opacity="1.000000" stroke="none" 
	d="
M281.185913,114.802734 
	C283.039307,110.393410 285.193115,105.828758 287.649597,101.078239 
	C288.787018,106.882957 284.762360,110.589233 281.185913,114.802734 
z"/>
<path fill="#50AF5A" opacity="1.000000" stroke="none" 
	d="
M213.211700,243.832138 
	C214.374695,240.724854 215.863327,237.491547 217.654419,234.072693 
	C217.850525,237.775345 217.497635,241.552582 213.211700,243.832138 
z"/>
<path fill="#50AF5A" opacity="1.000000" stroke="none" 
	d="
M685.788330,221.167892 
	C684.625366,224.275208 683.136658,227.508545 681.345459,230.927338 
	C681.149902,227.224823 681.502136,223.447250 685.788330,221.167892 
z"/>
<path fill="#50AF5A" opacity="1.000000" stroke="none" 
	d="
M223.211700,224.832138 
	C224.374680,221.724854 225.863312,218.491547 227.654419,215.072693 
	C227.850525,218.775345 227.497635,222.552582 223.211700,224.832138 
z"/>
<path fill="#50AF5A" opacity="1.000000" stroke="none" 
	d="
M556.788452,466.167847 
	C555.625366,469.275146 554.136658,472.508484 552.345459,475.927307 
	C552.149658,472.224670 552.502502,468.447327 556.788452,466.167847 
z"/>
<path fill="#50AF5A" opacity="1.000000" stroke="none" 
	d="
M294.211670,89.832161 
	C295.374847,86.725159 296.863647,83.492134 298.654785,80.073410 
	C298.850342,83.775642 298.497467,87.552811 294.211670,89.832161 
z"/>
<path fill="#50AF5A" opacity="1.000000" stroke="none" 
	d="
M794.787476,14.167625 
	C793.624512,17.274687 792.135986,20.507839 790.345093,23.926697 
	C790.149658,20.224634 790.502686,16.447647 794.787476,14.167625 
z"/>
<path fill="#50AF5A" opacity="1.000000" stroke="none" 
	d="
M546.806030,485.195618 
	C545.625244,488.274841 544.136414,491.507935 542.345215,494.926727 
	C543.527832,491.858093 545.012817,488.603790 546.806030,485.195618 
z"/>
<path fill="#50AF5A" opacity="1.000000" stroke="none" 
	d="
M536.806030,504.195618 
	C535.625244,507.274841 534.136414,510.507935 532.345215,513.926758 
	C533.527893,510.858093 535.012878,507.603790 536.806030,504.195618 
z"/>
<path fill="#50AF5A" opacity="1.000000" stroke="none" 
	d="
M635.805969,316.195618 
	C634.625244,319.274841 633.136414,322.507935 631.345154,325.926697 
	C632.527832,322.858093 634.012817,319.603790 635.805969,316.195618 
z"/>
<path fill="#50AF5A" opacity="1.000000" stroke="none" 
	d="
M645.806030,297.195618 
	C644.625244,300.274841 643.136414,303.507935 641.345215,306.926727 
	C642.527832,303.858124 644.012878,300.603790 645.806030,297.195618 
z"/>
<path fill="#50AF5A" opacity="1.000000" stroke="none" 
	d="
M655.806030,278.195618 
	C654.625244,281.274841 653.136414,284.507935 651.345215,287.926758 
	C652.527893,284.858124 654.012878,281.603821 655.806030,278.195618 
z"/>
<path fill="#50AF5A" opacity="1.000000" stroke="none" 
	d="
M526.805908,523.195618 
	C525.625244,526.274902 524.136414,529.507935 522.345215,532.926758 
	C523.527832,529.858093 525.012817,526.603760 526.805908,523.195618 
z"/>
<path fill="#50AF5A" opacity="1.000000" stroke="none" 
	d="
M675.805908,240.195709 
	C674.625183,243.274887 673.136353,246.507950 671.345215,249.926727 
	C672.527832,246.858170 674.012817,243.603882 675.805908,240.195709 
z"/>
<path fill="#50AF5A" opacity="1.000000" stroke="none" 
	d="
M516.805908,542.195618 
	C515.625183,545.274841 514.136353,548.507935 512.345215,551.926758 
	C513.527832,548.858093 515.012817,545.603760 516.805908,542.195618 
z"/>
<path fill="#50AF5A" opacity="1.000000" stroke="none" 
	d="
M665.805969,259.195618 
	C664.625244,262.274841 663.136414,265.507935 661.345154,268.926697 
	C662.527832,265.858093 664.012817,262.603790 665.805969,259.195618 
z"/>
<path fill="#50AF5A" opacity="1.000000" stroke="none" 
	d="
M764.805969,71.195686 
	C763.625244,74.274902 762.136414,77.507980 760.345215,80.926758 
	C761.527832,77.858154 763.012817,74.603844 764.805969,71.195686 
z"/>
<path fill="#50AF5A" opacity="1.000000" stroke="none" 
	d="
M314.194061,51.804321 
	C315.374756,48.725128 316.863586,45.492073 318.654755,42.073311 
	C317.472107,45.141888 315.987152,48.396172 314.194061,51.804321 
z"/>
<path fill="#50AF5A" opacity="1.000000" stroke="none" 
	d="
M784.805969,33.195698 
	C783.625244,36.274921 782.136414,39.507996 780.345215,42.926765 
	C781.527832,39.858154 783.012817,36.603851 784.805969,33.195698 
z"/>
<path fill="#50AF5A" opacity="1.000000" stroke="none" 
	d="
M774.805908,52.195694 
	C773.625183,55.274895 772.136353,58.507969 770.345215,61.926758 
	C771.527832,58.858170 773.012817,55.603867 774.805908,52.195694 
z"/>
<path fill="#50AF5A" opacity="1.000000" stroke="none" 
	d="
M324.194092,32.804321 
	C325.374786,29.725132 326.863617,26.492077 328.654785,23.073318 
	C327.472137,26.141897 325.987183,29.396177 324.194092,32.804321 
z"/>
<path fill="#50AF5A" opacity="1.000000" stroke="none" 
	d="
M304.194031,70.804337 
	C305.374725,67.725136 306.863586,64.492081 308.654755,61.073318 
	C307.472137,64.141899 305.987152,67.396187 304.194031,70.804337 
z"/>
<path fill="#50AF5A" opacity="1.000000" stroke="none" 
	d="
M334.194031,13.804327 
	C335.374725,10.725127 336.863556,7.492074 338.654755,4.073320 
	C337.472137,7.141905 335.987183,10.396190 334.194031,13.804327 
z"/>
<path fill="#50AF5A" opacity="1.000000" stroke="none" 
	d="
M207.989227,253.721924 
	C206.496414,256.881592 204.992828,259.763184 203.187408,262.801636 
	C204.374405,259.725433 205.863266,256.492340 207.654388,253.073517 
	C207.963943,253.073135 207.971222,253.258514 207.989227,253.721924 
z"/>
<path fill="#50AF5A" opacity="1.000000" stroke="none" 
	d="
M506.784363,561.172668 
	C505.957916,563.609497 504.801849,566.177185 503.344452,568.928833 
	C504.180298,566.509705 505.317505,563.906616 506.784363,561.172668 
z"/>
<path fill="#50AF5A" opacity="1.000000" stroke="none" 
	d="
M754.784302,90.172676 
	C753.957825,92.609505 752.801758,95.177216 751.344360,97.928925 
	C752.180237,95.509804 753.317444,92.906677 754.784302,90.172676 
z"/>
<path fill="#50AF5A" opacity="1.000000" stroke="none" 
	d="
M8.958210,641.653320 
	C8.027864,640.897827 7.055735,639.795593 6.041832,638.346680 
	C6.972182,639.102173 7.944305,640.204346 8.958210,641.653320 
z"/>
<path fill="#50AF5A" opacity="1.000000" stroke="none" 
	d="
M574.772583,432.198303 
	C574.278687,433.954254 573.459534,435.853180 572.341675,437.932495 
	C572.844360,436.188995 573.645813,434.265137 574.772583,432.198303 
z"/>
<path fill="#50AF5A" opacity="1.000000" stroke="none" 
	d="
M275.227295,125.801804 
	C275.721161,124.045860 276.540375,122.146889 277.658295,120.067558 
	C277.155548,121.811058 276.354095,123.734917 275.227295,125.801804 
z"/>
<path fill="#50AF5A" opacity="1.000000" stroke="none" 
	d="
M584.772583,413.198303 
	C584.278687,414.954224 583.459534,416.853180 582.341675,418.932495 
	C582.844360,417.188995 583.645813,415.265137 584.772583,413.198303 
z"/>
<path fill="#50AF5A" opacity="1.000000" stroke="none" 
	d="
M265.227356,144.801743 
	C265.721222,143.045807 266.540375,141.146866 267.658264,139.067581 
	C267.155518,140.811066 266.354065,142.734909 265.227356,144.801743 
z"/>
<path fill="#50AF5A" opacity="1.000000" stroke="none" 
	d="
M564.772583,451.198273 
	C564.278687,452.954193 563.459534,454.853119 562.341675,456.932251 
	C562.844360,455.188782 563.645813,453.265015 564.772583,451.198273 
z"/>
<path fill="#50AF5A" opacity="1.000000" stroke="none" 
	d="
M594.772583,394.198303 
	C594.278687,395.954224 593.459534,397.853180 592.341675,399.932495 
	C592.844360,398.188995 593.645813,396.265137 594.772583,394.198303 
z"/>
<path fill="#50AF5A" opacity="1.000000" stroke="none" 
	d="
M733.772522,130.198242 
	C733.278687,131.954193 732.459534,133.853165 731.341675,135.932495 
	C731.844360,134.188995 732.645752,132.265121 733.772522,130.198242 
z"/>
<path fill="#50AF5A" opacity="1.000000" stroke="none" 
	d="
M743.772583,111.198227 
	C743.278748,112.954185 742.459595,114.853157 741.341675,116.932510 
	C741.844421,115.189003 742.645813,113.265121 743.772583,111.198227 
z"/>
<path fill="#50AF5A" opacity="1.000000" stroke="none" 
	d="
M723.772522,149.198257 
	C723.278687,150.954208 722.459534,152.853165 721.341675,154.932495 
	C721.844421,153.189011 722.645813,151.265137 723.772522,149.198257 
z"/>
<path fill="#50AF5A" opacity="1.000000" stroke="none" 
	d="
M604.772583,375.198303 
	C604.278687,376.954254 603.459534,378.853210 602.341675,380.932495 
	C602.844421,379.189026 603.645874,377.265167 604.772583,375.198303 
z"/>
<path fill="#50AF5A" opacity="1.000000" stroke="none" 
	d="
M255.227325,163.801743 
	C255.721191,162.045807 256.540375,160.146896 257.658264,158.067596 
	C257.155487,159.811066 256.354065,161.734909 255.227325,163.801743 
z"/>
<path fill="#50AF5A" opacity="1.000000" stroke="none" 
	d="
M614.772583,356.198303 
	C614.278687,357.954254 613.459534,359.853180 612.341675,361.932495 
	C612.844421,360.188995 613.645813,358.265137 614.772583,356.198303 
z"/>
<path fill="#50AF5A" opacity="1.000000" stroke="none" 
	d="
M713.772522,168.198242 
	C713.278687,169.954193 712.459534,171.853149 711.341675,173.932495 
	C711.844360,172.188995 712.645813,170.265137 713.772522,168.198242 
z"/>
<path fill="#50AF5A" opacity="1.000000" stroke="none" 
	d="
M245.227325,182.801727 
	C245.721191,181.045807 246.540390,179.146866 247.658264,177.067566 
	C247.155518,178.811050 246.354080,180.734894 245.227325,182.801727 
z"/>
<path fill="#50AF5A" opacity="1.000000" stroke="none" 
	d="
M703.772522,187.198242 
	C703.278687,188.954193 702.459534,190.853149 701.341675,192.932495 
	C701.844360,191.188995 702.645813,189.265121 703.772522,187.198242 
z"/>
<path fill="#50AF5A" opacity="1.000000" stroke="none" 
	d="
M235.227341,201.801727 
	C235.721207,200.045807 236.540390,198.146881 237.658279,196.067566 
	C237.155533,197.811050 236.354095,199.734894 235.227341,201.801727 
z"/>
<path fill="#50AF5A" opacity="1.000000" stroke="none" 
	d="
M693.772583,206.198257 
	C693.278687,207.954178 692.459534,209.853104 691.341675,211.932281 
	C691.844421,210.188782 692.645874,208.265015 693.772583,206.198257 
z"/>
<path fill="#50AF5A" opacity="1.000000" stroke="none" 
	d="
M624.793823,337.222107 
	C624.279663,338.953308 623.460022,340.852753 622.341736,342.932617 
	C622.858154,341.205475 623.673218,339.297913 624.793823,337.222107 
z"/>
<path fill="#50AF5A" opacity="1.000000" stroke="none" 
	d="
M6.307939,635.805786 
	C6.276773,635.685486 6.384740,635.386780 6.727098,634.985535 
	C6.799524,635.137695 6.628052,635.385803 6.307939,635.805786 
z"/>
<path fill="#50AF5A" opacity="1.000000" stroke="none" 
	d="
M694.690796,205.192932 
	C694.721802,205.315033 694.611633,205.614655 694.262817,206.013306 
	C694.190308,205.858688 694.365479,205.611389 694.690796,205.192932 
z"/>
<path fill="#50AF5A" opacity="1.000000" stroke="none" 
	d="
M744.690796,110.192947 
	C744.721802,110.315063 744.611633,110.614662 744.262817,111.013306 
	C744.190308,110.858673 744.365479,110.611374 744.690796,110.192947 
z"/>
<path fill="#50AF5A" opacity="1.000000" stroke="none" 
	d="
M274.309235,126.807213 
	C274.278198,126.685089 274.388367,126.385437 274.737122,125.986740 
	C274.809662,126.141403 274.634552,126.388733 274.309235,126.807213 
z"/>
<path fill="#50AF5A" opacity="1.000000" stroke="none" 
	d="
M734.690796,129.192932 
	C734.721802,129.315033 734.611633,129.614639 734.262817,130.013306 
	C734.190308,129.858688 734.365479,129.611389 734.690796,129.192932 
z"/>
<path fill="#50AF5A" opacity="1.000000" stroke="none" 
	d="
M565.690796,450.193115 
	C565.721741,450.315247 565.611511,450.614807 565.262756,451.013367 
	C565.190247,450.858734 565.365417,450.611450 565.690796,450.193115 
z"/>
<path fill="#50AF5A" opacity="1.000000" stroke="none" 
	d="
M575.690796,431.193115 
	C575.721741,431.315247 575.611572,431.614807 575.262756,432.013367 
	C575.190247,431.858734 575.365417,431.611450 575.690796,431.193115 
z"/>
<path fill="#50AF5A" opacity="1.000000" stroke="none" 
	d="
M264.309235,145.807343 
	C264.278168,145.685211 264.388306,145.385513 264.737122,144.986755 
	C264.809631,145.141403 264.634491,145.388763 264.309235,145.807343 
z"/>
<path fill="#50AF5A" opacity="1.000000" stroke="none" 
	d="
M585.690796,412.193115 
	C585.721802,412.315247 585.611572,412.614807 585.262756,413.013367 
	C585.190247,412.858734 585.365417,412.611450 585.690796,412.193115 
z"/>
<path fill="#50AF5A" opacity="1.000000" stroke="none" 
	d="
M724.690796,148.192932 
	C724.721741,148.315018 724.611572,148.614639 724.262817,149.013306 
	C724.190308,148.858688 724.365479,148.611389 724.690796,148.192932 
z"/>
<path fill="#50AF5A" opacity="1.000000" stroke="none" 
	d="
M595.690796,393.193115 
	C595.721741,393.315247 595.611511,393.614807 595.262756,394.013367 
	C595.190247,393.858734 595.365417,393.611450 595.690796,393.193115 
z"/>
<path fill="#50AF5A" opacity="1.000000" stroke="none" 
	d="
M605.690796,374.193115 
	C605.721741,374.315247 605.611572,374.614807 605.262756,375.013367 
	C605.190247,374.858734 605.365417,374.611450 605.690796,374.193115 
z"/>
<path fill="#50AF5A" opacity="1.000000" stroke="none" 
	d="
M615.690796,355.193115 
	C615.721741,355.315247 615.611511,355.614807 615.262756,356.013367 
	C615.190247,355.858734 615.365417,355.611450 615.690796,355.193115 
z"/>
<path fill="#50AF5A" opacity="1.000000" stroke="none" 
	d="
M625.690918,336.192810 
	C625.721985,336.314972 625.611816,336.614655 625.262939,337.013428 
	C625.190308,336.858704 625.365417,336.611298 625.690918,336.192810 
z"/>
<path fill="#50AF5A" opacity="1.000000" stroke="none" 
	d="
M254.309250,164.807343 
	C254.278229,164.685211 254.388351,164.385513 254.737137,163.986725 
	C254.809647,164.141373 254.634521,164.388748 254.309250,164.807343 
z"/>
<path fill="#50AF5A" opacity="1.000000" stroke="none" 
	d="
M714.690796,167.192932 
	C714.721802,167.315033 714.611633,167.614655 714.262817,168.013306 
	C714.190308,167.858688 714.365479,167.611389 714.690796,167.192932 
z"/>
<path fill="#50AF5A" opacity="1.000000" stroke="none" 
	d="
M244.309235,183.807343 
	C244.278198,183.685196 244.388321,183.385498 244.737122,182.986725 
	C244.809647,183.141373 244.634521,183.388748 244.309235,183.807343 
z"/>
<path fill="#50AF5A" opacity="1.000000" stroke="none" 
	d="
M704.690796,186.192932 
	C704.721741,186.315033 704.611572,186.614639 704.262817,187.013306 
	C704.190308,186.858688 704.365479,186.611389 704.690796,186.192932 
z"/>
<path fill="#50AF5A" opacity="1.000000" stroke="none" 
	d="
M234.309250,202.807343 
	C234.278229,202.685211 234.388351,202.385513 234.737137,201.986725 
	C234.809647,202.141373 234.634521,202.388748 234.309250,202.807343 
z"/>
<path fill="#50AF5A" opacity="1.000000" stroke="none" 
	d="
M466.258240,639.015991 
	C466.190369,638.863953 466.366425,638.620239 466.690735,638.206421 
	C466.719086,638.326843 466.606812,638.622864 466.258240,639.015991 
z"/>
</svg>