<svg version="1.1" id="Layer_1" xmlns="http://www.w3.org/2000/svg" xmlns:xlink="http://www.w3.org/1999/xlink" x="0px" y="0px"
	 width="100%" viewBox="0 0 503 385" enable-background="new 0 0 503 385" xml:space="preserve">
<path fill="#000000" opacity="1.000000" stroke="none" 
	d="
M189.000000,386.000000 
	C126.361702,386.000000 63.723396,386.000000 1.042548,386.000000 
	C1.042548,257.753143 1.042548,129.506241 1.042548,1.000000 
	C130.687988,1.000000 260.376129,1.000000 390.864441,1.261426 
	C389.334045,5.604431 386.888702,9.625276 384.691620,13.777476 
	C370.818115,39.996342 356.972351,66.229965 343.172150,92.487488 
	C332.995758,111.850082 322.936432,131.274216 312.762970,150.638367 
	C302.283081,170.585770 291.694641,190.476120 281.215576,210.423965 
	C271.042786,229.788757 260.978149,249.210342 250.812897,268.579102 
	C236.350800,296.135010 221.843475,323.667175 207.348587,351.205841 
	C201.241455,362.808685 195.116730,374.402222 189.000000,386.000000 
z"/>
<path fill="#B3D7B6" opacity="1.000000" stroke="none" 
	d="
M189.468658,386.000000 
	C195.116730,374.402222 201.241455,362.808685 207.348587,351.205841 
	C221.843475,323.667175 236.350800,296.135010 250.812897,268.579102 
	C260.978149,249.210342 271.042786,229.788757 281.215576,210.423965 
	C291.694641,190.476120 302.283081,170.585770 312.762970,150.638367 
	C322.936432,131.274216 332.995758,111.850082 343.172150,92.487488 
	C356.972351,66.229965 370.818115,39.996342 384.691620,13.777476 
	C386.888702,9.625276 389.334045,5.604431 391.332306,1.261426 
	C427.500000,1.000000 464.000000,1.009416 500.499969,0.976515 
	C502.680847,0.974550 504.923126,0.561908 503.736816,4.169861 
	C502.972931,4.951106 502.355133,5.499715 501.988617,6.183084 
	C493.792847,21.465065 485.581909,36.739201 477.462128,52.061623 
	C467.367889,71.110001 457.307190,90.176476 447.317932,109.280083 
	C438.158478,126.796776 429.113281,144.373199 419.551819,161.989655 
	C401.460815,162.370926 383.836304,162.731018 366.210022,162.955780 
	C363.311462,162.992767 361.308502,163.549454 359.797943,166.436554 
	C342.692383,199.130173 325.407410,231.729858 308.258728,264.401031 
	C292.964478,293.539185 277.762360,322.725769 262.557312,351.910614 
	C256.651642,363.246002 250.849365,374.635284 245.000000,386.000000 
	C226.645767,386.000000 208.291550,386.000000 189.468658,386.000000 
z"/>
<path fill="#000000" opacity="1.000000" stroke="none" 
	d="
M420.017731,161.923309 
	C429.113281,144.373199 438.158478,126.796776 447.317932,109.280083 
	C457.307190,90.176476 467.367889,71.110001 477.462128,52.061623 
	C485.581909,36.739201 493.792847,21.465065 501.988617,6.183084 
	C502.355133,5.499715 502.972931,4.951106 503.736816,4.669861 
	C504.000000,131.894501 504.000000,258.789001 504.000000,386.000000 
	C455.646240,386.000000 407.291779,386.000000 358.242737,385.664734 
	C366.096436,369.037048 374.629120,352.736511 383.196930,336.454407 
	C393.761597,316.377350 404.402374,296.340210 414.922455,276.239868 
	C423.841187,259.199036 432.601776,242.075455 441.499756,225.023666 
	C445.298309,217.744232 449.329559,210.586411 453.147064,203.316605 
	C460.291473,189.711243 467.357147,176.064545 474.722107,161.923309 
	C455.997070,161.923309 438.007385,161.923309 420.017731,161.923309 
z"/>
<path fill="#51AC5A" opacity="1.000000" stroke="none" 
	d="
M419.551819,161.989655 
	C438.007385,161.923309 455.997070,161.923309 474.722107,161.923309 
	C467.357147,176.064545 460.291473,189.711243 453.147064,203.316605 
	C449.329559,210.586411 445.298309,217.744232 441.499756,225.023666 
	C432.601776,242.075455 423.841187,259.199036 414.922455,276.239868 
	C404.402374,296.340210 393.761597,316.377350 383.196930,336.454407 
	C374.629120,352.736511 366.096436,369.037048 357.774109,385.664734 
	C320.645782,386.000000 283.291534,386.000000 245.468658,386.000000 
	C250.849365,374.635284 256.651642,363.246002 262.557312,351.910614 
	C277.762360,322.725769 292.964478,293.539185 308.258728,264.401031 
	C325.407410,231.729858 342.692383,199.130173 359.797943,166.436554 
	C361.308502,163.549454 363.311462,162.992767 366.210022,162.955780 
	C383.836304,162.731018 401.460815,162.370926 419.551819,161.989655 
z"/>
</svg>