<svg version="1.1" id="Layer_1" xmlns="http://www.w3.org/2000/svg" xmlns:xlink="http://www.w3.org/1999/xlink" x="0px" y="0px"
	 width="100%" viewBox="0 0 198 474" enable-background="new 0 0 198 474" xml:space="preserve">
<path fill="#000000" opacity="1.000000" stroke="none" 
	d="
M41.000000,475.000000 
	C27.674004,475.000000 14.348009,475.000000 1.016510,475.000000 
	C1.011007,317.094299 1.011007,159.188583 1.011007,1.141435 
	C66.999802,1.141435 132.999847,1.141435 199.000000,1.141435 
	C199.000000,28.426155 199.000000,55.744419 198.650055,83.616547 
	C194.520966,91.250275 190.711395,98.314110 186.968094,105.412880 
	C172.634323,132.595306 158.308243,159.781799 144.005997,186.980820 
	C133.974045,206.058884 124.004799,225.169907 113.972717,244.247894 
	C99.670517,271.446350 85.304558,298.611267 71.031136,325.824799 
	C65.055046,337.218719 59.334221,348.746704 53.339542,360.130646 
	C45.698338,374.641296 37.886101,389.061890 30.205065,403.551758 
	C29.891722,404.142883 30.165051,405.045044 30.165051,406.038910 
	C45.969646,406.038910 61.458324,406.038910 76.850098,406.371368 
	C75.073967,409.694336 73.355507,412.663605 71.722794,415.679260 
	C66.493439,425.338104 61.168839,434.948364 56.121159,444.701660 
	C50.933723,454.725006 46.028645,464.894470 41.000000,475.000000 
z"/>
<path fill="#FFFFFF" opacity="1.000000" stroke="none" 
	d="
M76.947006,406.038910 
	C61.458324,406.038910 45.969646,406.038910 30.165051,406.038910 
	C30.165051,405.045044 29.891722,404.142883 30.205065,403.551758 
	C37.886101,389.061890 45.698338,374.641296 53.339542,360.130646 
	C59.334221,348.746704 65.055046,337.218719 71.031136,325.824799 
	C85.304558,298.611267 99.670517,271.446350 113.972717,244.247894 
	C124.004799,225.169907 133.974045,206.058884 144.005997,186.980820 
	C158.308243,159.781799 172.634323,132.595306 186.968094,105.412880 
	C190.711395,98.314110 194.520966,91.250275 198.650055,84.085205 
	C199.000000,115.020897 199.000000,146.041794 198.671722,177.639511 
	C193.505310,187.309097 188.657791,196.396896 183.830597,205.495453 
	C155.175171,259.506683 126.548813,313.533386 97.854401,367.523895 
	C90.999046,380.422699 83.922066,393.203735 76.947006,406.038910 
z"/>
<path fill="#52AC5B" opacity="1.000000" stroke="none" 
	d="
M76.850098,406.371368 
	C83.922066,393.203735 90.999046,380.422699 97.854401,367.523895 
	C126.548813,313.533386 155.175171,259.506683 183.830597,205.495453 
	C188.657791,196.396896 193.505310,187.309097 198.671722,178.108170 
	C199.000000,206.354233 199.000000,234.708450 198.725952,263.737946 
	C176.802017,305.236633 155.128860,346.047729 133.526825,386.896484 
	C130.207840,393.172577 127.216530,399.621948 123.941666,406.320374 
	C120.903107,411.974365 117.979683,417.290100 115.093964,422.626190 
	C110.726395,430.702423 106.273163,438.735138 102.062141,446.892578 
	C97.256989,456.200928 92.677536,465.625763 88.000000,475.000000 
	C72.645775,475.000000 57.291546,475.000000 41.468658,475.000000 
	C46.028645,464.894470 50.933723,454.725006 56.121159,444.701660 
	C61.168839,434.948364 66.493439,425.338104 71.722794,415.679260 
	C73.355507,412.663605 75.073967,409.694336 76.850098,406.371368 
z"/>
<path fill="#000000" opacity="1.000000" stroke="none" 
	d="
M88.468658,475.000000 
	C92.677536,465.625763 97.256989,456.200928 102.062141,446.892578 
	C106.273163,438.735138 110.726395,430.702423 115.093964,422.626190 
	C117.979683,417.290100 120.903107,411.974365 124.402512,406.325012 
	C141.651627,406.000702 158.308426,405.933136 174.963531,406.070496 
	C177.619461,406.092377 178.862427,405.301636 180.091064,402.908844 
	C185.526825,392.322754 191.244934,381.881042 196.936676,371.428345 
	C197.293930,370.772278 198.297256,370.467987 199.000000,370.000000 
	C199.000000,404.928986 199.000000,439.857941 199.000000,475.000000 
	C162.312714,475.000000 125.625015,475.000000 88.468658,475.000000 
z"/>
<path fill="#FEFFFE" opacity="1.000000" stroke="none" 
	d="
M199.000000,369.531342 
	C198.297256,370.467987 197.293930,370.772278 196.936676,371.428345 
	C191.244934,381.881042 185.526825,392.322754 180.091064,402.908844 
	C178.862427,405.301636 177.619461,406.092377 174.963531,406.070496 
	C158.308426,405.933136 141.651627,406.000702 124.534531,405.995850 
	C127.216530,399.621948 130.207840,393.172577 133.526825,386.896484 
	C155.128860,346.047729 176.802017,305.236633 198.725952,264.206604 
	C199.000000,299.020905 199.000000,334.041779 199.000000,369.531342 
z"/>
</svg>