<svg version="1.1" id="Layer_1" xmlns="http://www.w3.org/2000/svg" xmlns:xlink="http://www.w3.org/1999/xlink" x="0px" y="0px"
	 width="100%" viewBox="0 0 405 487" enable-background="new 0 0 405 487" xml:space="preserve">
<path fill="#50AF5A" opacity="1.000000" stroke="none" 
	d="
M406.000000,2.000000 
	C406.000000,163.914902 406.000000,325.829803 406.000000,488.000000 
	C291.645355,488.000000 177.290543,488.000000 62.485310,487.633362 
	C74.490654,463.562317 86.943367,439.856384 99.403137,416.154114 
	C108.961967,397.970306 118.534073,379.793427 128.092468,361.609375 
	C142.087463,334.985107 156.065094,308.351746 170.070084,281.732758 
	C179.713257,263.404175 189.393845,245.095322 199.051147,226.774170 
	C212.694046,200.891876 226.347321,175.014999 239.964920,149.119400 
	C250.061996,129.918518 260.115906,110.694954 270.177216,91.475319 
	C282.454315,68.023026 294.670685,44.538750 307.020325,21.124765 
	C310.445282,14.631345 314.250061,8.338247 318.078613,1.808343 
	C318.527679,1.453103 318.768799,1.231954 319.000000,1.000000 
	C347.354767,1.000000 375.709534,1.000000 404.691040,1.174333 
	C405.534637,1.576822 405.762024,1.793933 406.000000,2.000000 
z"/>
<path fill="#000000" opacity="1.000000" stroke="none" 
	d="
M317.880554,1.953239 
	C314.250061,8.338247 310.445282,14.631345 307.020325,21.124765 
	C294.670685,44.538750 282.454315,68.023026 270.177216,91.475319 
	C260.115906,110.694954 250.061996,129.918518 239.964920,149.119400 
	C226.347321,175.014999 212.694046,200.891876 199.051147,226.774170 
	C189.393845,245.095322 179.713257,263.404175 170.070084,281.732758 
	C156.065094,308.351746 142.087463,334.985107 128.092468,361.609375 
	C118.534073,379.793427 108.961967,397.970306 99.403137,416.154114 
	C86.943367,439.856384 74.490654,463.562317 62.017456,487.633362 
	C41.676952,488.000000 21.353903,488.000000 1.015427,488.000000 
	C1.015427,325.759064 1.015427,163.518127 1.015427,1.000000 
	C106.354065,1.000000 211.708374,1.000000 317.517914,1.240369 
	C317.973145,1.480737 317.880554,1.953240 317.880554,1.953239 
z"/>
<path fill="#44AA55" opacity="1.000000" stroke="none" 
	d="
M318.078613,1.808344 
	C317.880554,1.953240 317.973145,1.480737 317.986572,1.240369 
	C318.000000,1.000000 318.500000,1.000000 318.750000,1.000000 
	C318.768799,1.231954 318.527679,1.453103 318.078613,1.808344 
z"/>
<path fill="#44AA55" opacity="1.000000" stroke="none" 
	d="
M406.000000,1.500000 
	C405.762024,1.793933 405.534637,1.576822 405.158875,1.174333 
	C405.333344,1.000000 405.666656,1.000000 406.000000,1.500000 
z"/>
</svg>