<svg version="1.1" id="Layer_1" xmlns="http://www.w3.org/2000/svg" xmlns:xlink="http://www.w3.org/1999/xlink" x="0px" y="0px"
	 width="100%" viewBox="0 0 92 80" enable-background="new 0 0 92 80" xml:space="preserve">
<path fill="#fff" opacity="1.000000" stroke="none" 
	d="
M53.000000,81.000000 
	C49.307091,81.000000 45.614182,81.000000 41.218048,80.673134 
	C40.696571,80.074013 40.837730,79.760429 41.066345,79.535889 
	C43.362579,77.280609 44.068489,74.798073 41.683949,72.261513 
	C39.574875,70.017982 36.944595,69.256775 34.346519,71.377213 
	C31.672506,73.559639 31.483252,76.224228 33.554585,79.063499 
	C33.913494,79.555473 33.861958,80.346893 34.000000,81.000000 
	C30.307091,81.000000 26.614182,81.000000 22.199818,80.690643 
	C21.994034,79.542854 22.916328,78.717178 22.943136,77.863403 
	C23.004314,75.915016 23.296717,73.361198 22.238588,72.163315 
	C21.187902,70.973846 18.161617,70.262436 16.796068,70.940681 
	C15.110862,71.777702 13.666633,74.133362 13.219316,76.085136 
	C12.892204,77.512421 14.342156,79.346977 15.000000,81.000000 
	C10.390854,81.000000 5.781707,81.000000 1.000000,81.000000 
	C1.000000,73.979874 1.000000,66.958717 1.370134,59.259056 
	C4.033350,59.126583 6.646416,59.801903 6.677895,56.318970 
	C6.683636,55.683739 3.545680,55.021645 1.860424,54.368080 
	C1.569749,54.255360 1.286616,54.123188 1.000000,54.000000 
	C1.000000,49.643101 1.000000,45.286201 1.359669,40.247993 
	C3.232708,39.155697 4.810406,38.882214 6.209773,38.227547 
	C6.521354,38.081779 6.393959,35.903812 6.148019,35.836708 
	C4.480089,35.381603 2.726146,35.241737 1.000000,35.000000 
	C1.000000,23.723965 1.000000,12.447928 1.000000,1.000000 
	C18.353897,1.000000 35.708290,1.000000 53.758469,1.351838 
	C55.202583,3.125318 55.759964,5.606958 56.732830,5.782218 
	C60.618336,6.482182 59.591740,3.115902 60.000000,1.000000 
	C70.926559,1.000000 81.853119,1.000000 93.000000,1.000000 
	C93.000000,11.686553 93.000000,22.374619 92.651825,33.763512 
	C90.879906,35.206425 88.395119,35.755390 88.218727,36.724518 
	C87.509804,40.619385 90.827789,39.671928 93.000000,40.000000 
	C93.000000,53.550865 93.000000,67.101730 93.000000,81.000000 
	C88.991119,81.000000 84.972221,81.000000 80.296417,80.623871 
	C80.075706,79.371849 81.011711,78.391167 80.854164,77.639778 
	C80.385239,75.403374 80.014145,72.730408 78.558647,71.272362 
	C77.680229,70.392410 73.958588,70.746475 73.118568,71.811371 
	C71.882950,73.377792 72.005035,76.064156 71.704086,78.294411 
	C71.586334,79.167068 71.888878,80.096451 72.000000,81.000000 
	C68.638710,81.000000 65.277428,81.000000 61.240723,80.640503 
	C60.878708,79.517006 61.529762,78.711517 61.441944,77.996819 
	C61.183002,75.889511 61.183331,73.390030 60.009159,71.876442 
	C59.162643,70.785217 55.752052,70.130692 54.981724,70.860695 
	C53.447369,72.314713 52.663410,74.787201 52.125191,76.975647 
	C51.830727,78.172958 52.671276,79.649422 53.000000,81.000000 
M49.080624,58.074677 
	C49.844208,59.331268 50.410114,60.779758 51.408607,61.808308 
	C54.348835,64.837074 60.073238,64.765434 62.550526,61.831673 
	C65.352951,58.512856 65.472656,52.847298 62.142921,50.938881 
	C59.785347,49.587646 55.855980,48.435272 53.934715,49.516224 
	C51.583099,50.839298 50.596016,54.587662 49.080624,58.074677 
M43.632599,41.887253 
	C46.189552,38.431427 45.699326,34.659340 43.094872,31.978472 
	C41.527573,30.365187 38.180779,29.604710 35.795792,29.877653 
	C32.626308,30.240376 29.554846,32.495144 30.186819,36.174904 
	C30.660393,38.932354 32.179474,42.040890 34.233578,43.868759 
	C37.132496,46.448406 40.410278,44.913273 43.632599,41.887253 
M63.040104,41.426933 
	C65.206062,38.223217 65.427269,34.799934 62.513882,32.249752 
	C60.808743,30.757185 57.517208,29.241493 55.868481,29.937431 
	C53.198277,31.064539 50.234444,33.674057 49.423122,36.287415 
	C48.849541,38.134987 51.122059,41.572483 53.023121,43.324753 
	C56.285942,46.332191 59.709068,45.027843 63.040104,41.426933 
M31.403042,52.080517 
	C29.056902,56.414551 29.842100,60.416462 33.500351,62.769794 
	C37.128723,65.103905 40.989578,64.307182 43.848961,60.634285 
	C45.774227,58.161263 45.339111,52.731766 43.046989,50.627037 
	C40.301121,48.105663 35.320328,48.509754 31.403042,52.080517 
M15.656776,60.902122 
	C18.794155,62.615257 21.734728,62.148880 22.845354,58.760029 
	C23.441105,56.942215 22.801630,53.891521 21.522835,52.485981 
	C19.709492,50.492928 16.949738,50.183540 14.641554,52.795979 
	C12.173926,55.588879 12.260508,58.032745 15.656776,60.902122 
M80.923050,58.029423 
	C80.428711,56.072979 80.547928,53.449490 79.305328,52.306522 
	C77.090546,50.269325 74.063629,50.265457 72.086792,53.115364 
	C70.287460,55.709354 70.263519,58.413643 73.071083,60.472515 
	C76.170189,62.745178 78.790001,62.327400 80.923050,58.029423 
M20.034790,22.919765 
	C24.755211,19.021814 25.318850,15.654681 21.273924,13.916540 
	C19.442755,13.129671 16.634871,13.126908 14.937051,14.026794 
	C13.747555,14.657258 12.672627,18.160147 13.338094,19.070299 
	C14.644509,20.857077 17.200006,21.730579 20.034790,22.919765 
M32.159870,17.531288 
	C32.351692,18.138699 32.522213,18.753824 32.738892,19.352232 
	C33.884453,22.515938 36.357117,24.006517 39.266380,22.642895 
	C40.921597,21.867067 42.604111,19.401985 42.706219,17.608337 
	C42.789192,16.150909 40.791698,13.653831 39.265141,13.224705 
	C36.406216,12.421039 33.285690,12.895484 32.159870,17.531288 
M77.239883,41.979588 
	C81.588745,41.084736 81.733398,37.646046 80.565369,34.768082 
	C79.984085,33.335815 76.407631,31.725592 75.135361,32.299671 
	C73.307106,33.124626 71.505646,35.748474 71.205879,37.823093 
	C70.728653,41.125813 73.384354,42.181519 77.239883,41.979588 
M23.459940,38.043453 
	C23.747223,34.853497 22.348360,32.258022 19.247248,32.232445 
	C17.276049,32.216190 14.188247,33.871311 13.613451,35.491039 
	C13.026958,37.143730 14.324389,40.793270 15.826821,41.565800 
	C18.465021,42.922321 21.733322,42.383652 23.459940,38.043453 
M54.933292,13.093102 
	C53.976036,15.293275 52.616085,17.431540 52.263546,19.724680 
	C52.126232,20.617851 54.154922,22.591661 55.382481,22.765808 
	C57.079193,23.006514 59.684013,22.565310 60.562038,21.404331 
	C61.650185,19.965511 62.270565,16.917536 61.441780,15.616764 
	C60.502911,14.143205 57.734898,13.835073 54.933292,13.093102 
M80.994415,17.573332 
	C80.913803,13.421507 78.110184,12.366497 74.919891,13.196988 
	C73.364235,13.601954 71.542496,15.726888 71.179451,17.369118 
	C70.532471,20.295706 72.378922,22.451250 75.405029,22.906523 
	C78.704811,23.402971 80.929848,22.135857 80.994415,17.573332 
z"/>
<path fill="#003c87" opacity="1.000000" stroke="none" 
	d="
M34.437500,81.000000 
	C33.861958,80.346893 33.913494,79.555473 33.554585,79.063499 
	C31.483252,76.224228 31.672506,73.559639 34.346519,71.377213 
	C36.944595,69.256775 39.574875,70.017982 41.683949,72.261513 
	C44.068489,74.798073 43.362579,77.280609 41.066345,79.535889 
	C40.837730,79.760429 40.696571,80.074013 40.757412,80.673134 
	C38.958332,81.000000 36.916668,81.000000 34.437500,81.000000 
z"/>
<path fill="#003c87" opacity="1.000000" stroke="none" 
	d="
M15.437500,81.000000 
	C14.342156,79.346977 12.892204,77.512421 13.219316,76.085136 
	C13.666633,74.133362 15.110862,71.777702 16.796068,70.940681 
	C18.161617,70.262436 21.187902,70.973846 22.238588,72.163315 
	C23.296717,73.361198 23.004314,75.915016 22.943136,77.863403 
	C22.916328,78.717178 21.994034,79.542854 21.739182,80.690643 
	C19.958334,81.000000 17.916666,81.000000 15.437500,81.000000 
z"/>
<path fill="#003c87" opacity="1.000000" stroke="none" 
	d="
M53.444160,81.000000 
	C52.671276,79.649422 51.830727,78.172958 52.125191,76.975647 
	C52.663410,74.787201 53.447369,72.314713 54.981724,70.860695 
	C55.752052,70.130692 59.162643,70.785217 60.009159,71.876442 
	C61.183331,73.390030 61.183002,75.889511 61.441944,77.996819 
	C61.529762,78.711517 60.878708,79.517006 60.782654,80.640503 
	C58.629444,81.000000 56.258884,81.000000 53.444160,81.000000 
z"/>
<path fill="#003c87" opacity="1.000000" stroke="none" 
	d="
M72.444168,81.000000 
	C71.888878,80.096451 71.586334,79.167068 71.704086,78.294411 
	C72.005035,76.064156 71.882950,73.377792 73.118568,71.811371 
	C73.958588,70.746475 77.680229,70.392410 78.558647,71.272362 
	C80.014145,72.730408 80.385239,75.403374 80.854164,77.639778 
	C81.011711,78.391167 80.075706,79.371849 79.819763,80.623871 
	C77.629440,81.000000 75.258888,81.000000 72.444168,81.000000 
z"/>
<path fill="#003c87" opacity="1.000000" stroke="none" 
	d="
M1.000000,35.416664 
	C2.726146,35.241737 4.480089,35.381603 6.148019,35.836708 
	C6.393959,35.903812 6.521354,38.081779 6.209773,38.227547 
	C4.810406,38.882214 3.232708,39.155697 1.359669,39.783340 
	C1.000000,38.611111 1.000000,37.222221 1.000000,35.416664 
z"/>
<path fill="#003c87" opacity="1.000000" stroke="none" 
	d="
M1.000000,54.416664 
	C1.286616,54.123188 1.569749,54.255360 1.860424,54.368080 
	C3.545680,55.021645 6.683636,55.683739 6.677895,56.318970 
	C6.646416,59.801903 4.033350,59.126583 1.370134,58.790272 
	C1.000000,57.611111 1.000000,56.222221 1.000000,54.416664 
z"/>
<path fill="#003c87" opacity="1.000000" stroke="none" 
	d="
M93.000000,39.571537 
	C90.827789,39.671928 87.509804,40.619385 88.218727,36.724518 
	C88.395119,35.755390 90.879906,35.206425 92.651825,34.232170 
	C93.000000,35.714359 93.000000,37.428715 93.000000,39.571537 
z"/>
<path fill="#003c87" opacity="1.000000" stroke="none" 
	d="
M59.571537,1.000000 
	C59.591740,3.115902 60.618336,6.482182 56.732830,5.782218 
	C55.759964,5.606958 55.202583,3.125318 54.227127,1.351838 
	C55.714359,1.000000 57.428715,1.000000 59.571537,1.000000 
z"/>
<path fill="#003c87" opacity="1.000000" stroke="none" 
	d="
M49.049774,57.681019 
	C50.596016,54.587662 51.583099,50.839298 53.934715,49.516224 
	C55.855980,48.435272 59.785347,49.587646 62.142921,50.938881 
	C65.472656,52.847298 65.352951,58.512856 62.550526,61.831673 
	C60.073238,64.765434 54.348835,64.837074 51.408607,61.808308 
	C50.410114,60.779758 49.844208,59.331268 49.049774,57.681019 
z"/>
<path fill="#003c87" opacity="1.000000" stroke="none" 
	d="
M43.339966,42.160820 
	C40.410278,44.913273 37.132496,46.448406 34.233578,43.868759 
	C32.179474,42.040890 30.660393,38.932354 30.186819,36.174904 
	C29.554846,32.495144 32.626308,30.240376 35.795792,29.877653 
	C38.180779,29.604710 41.527573,30.365187 43.094872,31.978472 
	C45.699326,34.659340 46.189552,38.431427 43.339966,42.160820 
z"/>
<path fill="#003c87" opacity="1.000000" stroke="none" 
	d="
M62.780972,41.702835 
	C59.709068,45.027843 56.285942,46.332191 53.023121,43.324753 
	C51.122059,41.572483 48.849541,38.134987 49.423122,36.287415 
	C50.234444,33.674057 53.198277,31.064539 55.868481,29.937431 
	C57.517208,29.241493 60.808743,30.757185 62.513882,32.249752 
	C65.427269,34.799934 65.206062,38.223217 62.780972,41.702835 
z"/>
<path fill="#003c87" opacity="1.000000" stroke="none" 
	d="
M31.692759,51.802605 
	C35.320328,48.509754 40.301121,48.105663 43.046989,50.627037 
	C45.339111,52.731766 45.774227,58.161263 43.848961,60.634285 
	C40.989578,64.307182 37.128723,65.103905 33.500351,62.769794 
	C29.842100,60.416462 29.056902,56.414551 31.692759,51.802605 
z"/>
<path fill="#003c87" opacity="1.000000" stroke="none" 
	d="
M15.335928,60.680977 
	C12.260508,58.032745 12.173926,55.588879 14.641554,52.795979 
	C16.949738,50.183540 19.709492,50.492928 21.522835,52.485981 
	C22.801630,53.891521 23.441105,56.942215 22.845354,58.760029 
	C21.734728,62.148880 18.794155,62.615257 15.335928,60.680977 
z"/>
<path fill="#003c87" opacity="1.000000" stroke="none" 
	d="
M80.790359,58.408859 
	C78.790001,62.327400 76.170189,62.745178 73.071083,60.472515 
	C70.263519,58.413643 70.287460,55.709354 72.086792,53.115364 
	C74.063629,50.265457 77.090546,50.269325 79.305328,52.306522 
	C80.547928,53.449490 80.428711,56.072979 80.790359,58.408859 
z"/>
<path fill="#003c87" opacity="1.000000" stroke="none" 
	d="
M19.636719,22.950874 
	C17.200006,21.730579 14.644509,20.857077 13.338094,19.070299 
	C12.672627,18.160147 13.747555,14.657258 14.937051,14.026794 
	C16.634871,13.126908 19.442755,13.129671 21.273924,13.916540 
	C25.318850,15.654681 24.755211,19.021814 19.636719,22.950874 
z"/>
<path fill="#003c87" opacity="1.000000" stroke="none" 
	d="
M32.379108,17.209415 
	C33.285690,12.895484 36.406216,12.421039 39.265141,13.224705 
	C40.791698,13.653831 42.789192,16.150909 42.706219,17.608337 
	C42.604111,19.401985 40.921597,21.867067 39.266380,22.642895 
	C36.357117,24.006517 33.884453,22.515938 32.738892,19.352232 
	C32.522213,18.753824 32.351692,18.138699 32.379108,17.209415 
z"/>
<path fill="#003c87" opacity="1.000000" stroke="none" 
	d="
M76.829300,41.987198 
	C73.384354,42.181519 70.728653,41.125813 71.205879,37.823093 
	C71.505646,35.748474 73.307106,33.124626 75.135361,32.299671 
	C76.407631,31.725592 79.984085,33.335815 80.565369,34.768082 
	C81.733398,37.646046 81.588745,41.084736 76.829300,41.987198 
z"/>
<path fill="#003c87" opacity="1.000000" stroke="none" 
	d="
M23.267672,38.371933 
	C21.733322,42.383652 18.465021,42.922321 15.826821,41.565800 
	C14.324389,40.793270 13.026958,37.143730 13.613451,35.491039 
	C14.188247,33.871311 17.276049,32.216190 19.247248,32.232445 
	C22.348360,32.258022 23.747223,34.853497 23.267672,38.371933 
z"/>
<path fill="#003c87" opacity="1.000000" stroke="none" 
	d="
M55.347740,13.056660 
	C57.734898,13.835073 60.502911,14.143205 61.441780,15.616764 
	C62.270565,16.917536 61.650185,19.965511 60.562038,21.404331 
	C59.684013,22.565310 57.079193,23.006514 55.382481,22.765808 
	C54.154922,22.591661 52.126232,20.617851 52.263546,19.724680 
	C52.616085,17.431540 53.976036,15.293275 55.347740,13.056660 
z"/>
<path fill="#003c87" opacity="1.000000" stroke="none" 
	d="
M80.994659,17.988764 
	C80.929848,22.135857 78.704811,23.402971 75.405029,22.906523 
	C72.378922,22.451250 70.532471,20.295706 71.179451,17.369118 
	C71.542496,15.726888 73.364235,13.601954 74.919891,13.196988 
	C78.110184,12.366497 80.913803,13.421507 80.994659,17.988764 
z"/>
</svg>